<?xml version="1.0" standalone="no"?>
<!DOCTYPE svg PUBLIC "-//W3C//DTD SVG 20010904//EN"
 "http://www.w3.org/TR/2001/REC-SVG-20010904/DTD/svg10.dtd">
<svg version="1.0" xmlns="http://www.w3.org/2000/svg"
 width="500.000000pt" height="500.000000pt" viewBox="0 0 500.000000 500.000000"
 preserveAspectRatio="xMidYMid meet">
<metadata>
Created by potrace 1.14, written by Peter Selinger 2001-2017
</metadata>
<g transform="translate(0.000000,500.000000) scale(0.100000,-0.100000)"
fill="#000000" stroke="none">
<path d="M2338 4225 c-2 -2 -28 -6 -58 -9 -442 -53 -883 -306 -1149 -661 -29
-38 -58 -77 -65 -85 -25 -32 -116 -198 -149 -275 -71 -163 -113 -311 -135
-485 -9 -73 -9 -350 1 -425 35 -273 149 -566 305 -785 59 -83 250 -287 325
-348 215 -174 484 -296 777 -354 135 -26 411 -32 550 -12 233 35 487 128 680
250 100 63 104 66 209 155 268 229 468 553 550 894 66 272 66 570 1 827 -28
109 -51 181 -61 193 -5 5 -9 15 -9 22 0 8 -9 33 -20 55 -11 23 -20 45 -20 49
0 18 -142 252 -190 313 -101 129 -217 244 -330 329 -41 32 -79 61 -85 65 -5 4
-50 31 -100 60 -269 154 -553 230 -867 229 -87 0 -159 -1 -160 -2z"/>
</g>
</svg>
