<svg width="16" height="16" viewBox="0 0 16 16" fill="none" xmlns="http://www.w3.org/2000/svg">
<g clip-path="url(#clip0_248_2150)">
<path d="M3.23743 10.2963C3.21954 10.341 3.16588 10.341 3.148 10.2963L1.55611 4.93041C1.53823 4.89464 1.52034 4.8857 1.49351 4.8857H0.0447159C0.0178864 4.8857 0 4.90358 0 4.93041V11.137C0 11.1638 0.0178864 11.1817 0.0447159 11.1817H0.804886C0.831715 11.1817 0.849602 11.1638 0.849602 11.137V5.78001C0.849602 5.72636 0.921147 5.71741 0.939033 5.77107L2.51303 11.137C2.52198 11.1638 2.55775 11.1817 2.58458 11.1817H3.80085C3.82768 11.1817 3.86345 11.1638 3.87239 11.137L5.44639 5.77107C5.45534 5.72636 5.53583 5.71741 5.53583 5.78001V11.137C5.53583 11.1638 5.55371 11.1817 5.58054 11.1817H6.34071C6.36754 11.1817 6.38543 11.1638 6.38543 11.137V4.93041C6.38543 4.90358 6.36754 4.8857 6.34071 4.8857H4.89192C4.86509 4.8857 4.8472 4.89464 4.82931 4.93041L3.23743 10.2963Z" fill="black"/>
<path d="M7.55035 11.137C7.55035 11.1638 7.56823 11.1817 7.59506 11.1817H8.35523C8.38206 11.1817 8.39995 11.1638 8.39995 11.137V8.72232C8.39995 8.69549 8.41783 8.6776 8.44466 8.6776H10.2065C11.1902 8.6776 12.0309 7.86377 12.0309 6.79954C12.0309 5.7353 11.1902 4.8857 10.2065 4.8857H7.59506C7.56823 4.8857 7.55035 4.90358 7.55035 4.93041V11.137ZM10.0992 5.64587C10.6626 5.64587 11.1813 6.18246 11.1813 6.79954C11.1813 7.41662 10.6626 7.91743 10.0992 7.91743H8.44466C8.41783 7.91743 8.39995 7.89955 8.39995 7.87272V5.69058C8.39995 5.66375 8.41783 5.64587 8.44466 5.64587H10.0992Z" fill="black"/>
<path fill-rule="evenodd" clip-rule="evenodd" d="M5.53271 0.604675H16V15.3953H5.53271V13.3286H6.39264V14.5354H15.1401V1.4646H6.39264V2.82703H5.53271V0.604675Z" fill="black"/>
</g>
<defs>
<clipPath id="clip0_248_2150">
<rect width="16" height="16" fill="white"/>
</clipPath>
</defs>
</svg>
