<svg width="20" height="21" viewBox="0 0 20 21" fill="none" xmlns="http://www.w3.org/2000/svg">
<path fill-rule="evenodd" clip-rule="evenodd" d="M10 0.92749C4.47514 0.92749 0 5.40263 0 10.9275C0 15.3474 2.86679 19.092 6.83855 20.418C7.33579 20.5101 7.51995 20.2031 7.51995 19.933C7.51995 19.6936 7.51381 19.0674 7.50767 18.2326C4.72683 18.8342 4.13751 16.8943 4.13751 16.8943C3.68324 15.7403 3.0264 15.4333 3.0264 15.4333C2.11786 14.8133 3.09392 14.8256 3.09392 14.8256C4.09454 14.8992 4.62861 15.8569 4.62861 15.8569C5.51872 17.3854 6.96746 16.9434 7.53837 16.6856C7.63045 16.0411 7.88827 15.5991 8.17066 15.3474C5.94843 15.0957 3.61571 14.2363 3.61571 10.4057C3.61571 9.313 4.00246 8.42288 4.64702 7.72307C4.54266 7.47138 4.19889 6.45235 4.74524 5.07727C4.74524 5.07727 5.58625 4.80717 7.4954 6.10244C8.29343 5.88145 9.14672 5.77095 10 5.76481C10.8471 5.76481 11.7066 5.88145 12.5046 6.10244C14.4137 4.80717 15.2548 5.07727 15.2548 5.07727C15.8011 6.45235 15.4573 7.47138 15.353 7.72307C15.9914 8.42288 16.3781 9.313 16.3781 10.4057C16.3781 14.2485 14.0393 15.0896 11.8109 15.3412C12.167 15.6482 12.4923 16.262 12.4923 17.1951C12.4923 18.5334 12.48 19.6077 12.48 19.9391C12.48 20.2093 12.6581 20.5162 13.1676 20.418C17.1393 19.092 20 15.3474 20 10.9336C20 5.40263 15.5249 0.92749 10 0.92749Z" fill="#191717"/>
</svg>
