<svg width="183" height="75" viewBox="0 0 183 75" fill="none" xmlns="http://www.w3.org/2000/svg">
<path d="M16.3262 48.0041C16.2376 48.2256 15.9718 48.2256 15.8832 48.0041L7.99836 21.426C7.90977 21.2488 7.82118 21.2045 7.68829 21.2045H0.512188C0.379297 21.2045 0.290703 21.2931 0.290703 21.426V52.168C0.290703 52.3009 0.379297 52.3895 0.512188 52.3895H4.27742C4.41032 52.3895 4.49891 52.3009 4.49891 52.168V25.6342C4.49891 25.3684 4.85328 25.3241 4.94188 25.5899L12.7381 52.168C12.7824 52.3009 12.9596 52.3895 13.0925 52.3895H19.1169C19.2498 52.3895 19.427 52.3009 19.4713 52.168L27.2675 25.5899C27.3118 25.3684 27.7105 25.3241 27.7105 25.6342V52.168C27.7105 52.3009 27.7991 52.3895 27.932 52.3895H31.6972C31.8301 52.3895 31.9187 52.3009 31.9187 52.168V21.426C31.9187 21.2931 31.8301 21.2045 31.6972 21.2045H24.5211C24.3882 21.2045 24.2996 21.2488 24.211 21.426L16.3262 48.0041Z" fill="black"/>
<path d="M57.0908 42.6885C57.2236 42.6885 57.2679 42.5999 57.3122 42.467C57.4008 42.1126 57.5337 41.6254 57.5337 41.1824C57.5337 34.2721 53.6356 29.5323 46.7253 29.5323C39.8593 29.5323 35.9611 34.2278 35.9611 41.1824C35.9611 48.0927 40.0807 52.8325 46.7253 52.8325C51.7308 52.8325 55.6733 50.3076 56.825 45.9665C56.8693 45.7893 56.7364 45.745 56.6035 45.745H52.6611C52.5282 45.745 52.4396 45.7893 52.351 45.9665C51.4207 47.7383 49.8704 49.0672 46.7253 49.0672C42.7829 49.0672 40.4351 46.1437 40.4351 42.91C40.4351 42.7771 40.5237 42.6885 40.6566 42.6885H57.0908ZM52.9268 39.1447C52.9268 39.2776 52.8382 39.3662 52.7054 39.3662H40.6566C40.568 39.3662 40.4351 39.2776 40.4351 39.1447C40.4351 37.0628 42.4285 33.2975 46.7253 33.2975C51.1107 33.2975 52.9268 36.6198 52.9268 39.1447Z" fill="black"/>
<path d="M81.9687 52.3895C82.1015 52.3895 82.1901 52.3009 82.1901 52.168V21.426C82.1901 21.2931 82.1015 21.2045 81.9687 21.2045H78.2034C78.0705 21.2045 77.9819 21.2931 77.9819 21.426V31.9686C77.9819 32.1458 77.7605 32.323 77.539 32.0572C77.0074 31.4371 74.3053 29.5323 71.2045 29.5323C64.7372 29.5323 60.6618 34.2721 60.6618 41.1824C60.6618 48.0927 64.7372 52.8325 71.2045 52.8325C73.4194 52.8325 76.3429 51.5036 77.539 50.3076C77.6719 50.1747 77.8933 50.1304 77.9819 50.3962L78.4249 52.168C78.4692 52.3009 78.5135 52.3895 78.6464 52.3895H81.9687ZM64.8701 41.1824C64.8701 36.5755 67.395 33.2975 71.6475 33.2975C75.6785 33.2975 77.9819 36.5755 77.9819 41.1824C77.9819 45.7893 75.6785 49.0672 71.6475 49.0672C67.395 49.0672 64.8701 45.7893 64.8701 41.1824Z" fill="black"/>
<path d="M87.8913 52.168C87.8913 52.3009 87.9799 52.3895 88.1128 52.3895H91.878C92.0109 52.3895 92.0995 52.3009 92.0995 52.168V40.2079C92.0995 40.075 92.1881 39.9864 92.321 39.9864H101.047C105.92 39.9864 110.084 35.9554 110.084 30.684C110.084 25.4127 105.92 21.2045 101.047 21.2045H88.1128C87.9799 21.2045 87.8913 21.2931 87.8913 21.426V52.168ZM100.516 24.9697C103.307 24.9697 105.876 27.6275 105.876 30.684C105.876 33.7405 103.307 36.2211 100.516 36.2211H92.321C92.1881 36.2211 92.0995 36.1325 92.0995 35.9997V25.1912C92.0995 25.0583 92.1881 24.9697 92.321 24.9697H100.516Z" fill="black"/>
<path d="M133.022 42.6885C133.155 42.6885 133.199 42.5999 133.243 42.467C133.332 42.1126 133.465 41.6254 133.465 41.1824C133.465 34.2721 129.567 29.5323 122.656 29.5323C115.79 29.5323 111.892 34.2278 111.892 41.1824C111.892 48.0927 116.012 52.8325 122.656 52.8325C127.662 52.8325 131.604 50.3076 132.756 45.9665C132.8 45.7893 132.668 45.745 132.535 45.745H128.592C128.459 45.745 128.371 45.7893 128.282 45.9665C127.352 47.7383 125.801 49.0672 122.656 49.0672C118.714 49.0672 116.366 46.1437 116.366 42.91C116.366 42.7771 116.455 42.6885 116.588 42.6885H133.022ZM128.858 39.1447C128.858 39.2776 128.769 39.3662 128.636 39.3662H116.588C116.499 39.3662 116.366 39.2776 116.366 39.1447C116.366 37.0628 118.36 33.2975 122.656 33.2975C127.042 33.2975 128.858 36.6198 128.858 39.1447Z" fill="black"/>
<path d="M149.705 33.2975C149.838 33.2975 149.926 33.209 149.926 33.0761V29.7538C149.926 29.6209 149.838 29.5323 149.705 29.5323H147.446C145.231 29.5323 143.592 30.7283 142.086 32.2344C141.953 32.3673 141.687 32.4559 141.599 32.1901L141.156 30.1968C141.111 30.0639 141.067 29.9753 140.934 29.9753H137.612C137.479 29.9753 137.39 30.0639 137.39 30.1968V52.168C137.39 52.3009 137.479 52.3895 137.612 52.3895H141.377C141.51 52.3895 141.599 52.3009 141.599 52.168V39.9864C141.599 36.5312 143.725 33.2975 147.446 33.2975H149.705Z" fill="black"/>
<path d="M166.946 21.426C166.946 21.2931 166.857 21.2045 166.724 21.2045H163.756C159.637 21.1159 157.51 22.7992 157.51 26.4315V29.7538C157.51 29.8867 157.422 29.9753 157.289 29.9753H153.347C153.214 29.9753 153.125 30.0639 153.125 30.1968V33.0761C153.125 33.209 153.214 33.2975 153.347 33.2975H157.289C157.422 33.2975 157.51 33.3861 157.51 33.519V52.168C157.51 52.3009 157.599 52.3895 157.732 52.3895H161.497C161.63 52.3895 161.719 52.3009 161.719 52.168V33.519C161.719 33.3861 161.807 33.2975 161.94 33.2975H166.724C166.857 33.2975 166.946 33.209 166.946 33.0761V30.1968C166.946 30.0639 166.857 29.9753 166.724 29.9753H161.94C161.807 29.9753 161.719 29.8867 161.719 29.7538V27.1846C161.719 25.8114 162.472 24.9697 163.801 24.9697H166.724C166.857 24.9697 166.946 24.8811 166.946 24.7482V21.426Z" fill="black"/>
<path fill-rule="evenodd" clip-rule="evenodd" d="M77.9168 0H182.249V74.1121H77.9168V63.0235H82.1761V69.8528H177.989V4.25932H82.1761V11.0077H77.9168V0Z" fill="white"/>
</svg>
