<svg width="97" height="29" viewBox="0 0 97 29" fill="none" xmlns="http://www.w3.org/2000/svg">
<path d="M16.4448 22.0502C16.4448 25.2204 17.8479 27.1262 20.4326 27.1262C22.648 27.1262 23.6081 25.532 23.9034 24.5607C23.9096 24.5323 23.9263 24.5071 23.9502 24.4901C23.9741 24.4732 24.0035 24.4657 24.0327 24.4691H25.6573C25.7127 24.4691 25.7496 24.4874 25.7496 24.5607C25.7496 25.7702 24.2912 28.6839 20.4326 28.6839C16.3709 28.6839 14.5986 25.9351 14.5986 22.0502C14.5986 18.1653 16.7402 15.4165 20.4326 15.4165C24.4573 15.4165 25.7496 18.5318 25.7496 19.5397C25.7496 19.613 25.7127 19.6313 25.6573 19.6313H24.0327C24.0043 19.631 23.9767 19.622 23.9535 19.6056C23.9304 19.5893 23.9129 19.5662 23.9034 19.5397C23.6265 18.7517 22.8696 16.9742 20.4326 16.9742C17.8479 16.9742 16.4448 18.88 16.4448 22.0502ZM35.9589 23.8644C35.9589 26.7231 34.2604 28.6839 31.3803 28.6839C28.4817 28.6839 26.8017 26.7231 26.8017 23.8644C26.8017 20.9874 28.4817 19.0449 31.3803 19.0449C34.2604 19.0449 35.9589 21.0057 35.9589 23.8644ZM34.205 23.8644C34.205 21.9586 33.1527 20.6025 31.3803 20.6025C29.6264 20.6025 28.5556 21.9586 28.5556 23.8644C28.5556 25.7702 29.6264 27.1262 31.3803 27.1262C33.1527 27.1262 34.205 25.7702 34.205 23.8644V23.8644ZM47.2944 19.0449C46.4082 19.0449 45.2082 19.3381 44.5066 20.1444C44.4143 20.2361 44.3774 20.2177 44.285 20.1444C43.4173 19.3198 42.9004 19.0449 41.608 19.0449C40.7034 19.0449 39.7434 19.4847 39.4111 20.1444C39.3742 20.2177 39.2265 20.2544 39.1896 20.1444L39.0049 19.3198C38.9865 19.2648 38.968 19.2282 38.9126 19.2282H37.528C37.5156 19.2274 37.5033 19.2293 37.4918 19.2336C37.4802 19.238 37.4697 19.2447 37.461 19.2534C37.4523 19.262 37.4455 19.2724 37.4411 19.2839C37.4368 19.2953 37.4349 19.3076 37.4356 19.3198V28.409C37.4349 28.4212 37.4368 28.4334 37.4411 28.4449C37.4455 28.4564 37.4523 28.4668 37.461 28.4754C37.4697 28.4841 37.4802 28.4908 37.4918 28.4951C37.5033 28.4995 37.5156 28.5014 37.528 28.5006H39.0972C39.1095 28.5014 39.1219 28.4995 39.1334 28.4951C39.145 28.4908 39.1554 28.4841 39.1642 28.4754C39.1729 28.4668 39.1797 28.4564 39.184 28.4449C39.1884 28.4334 39.1903 28.4212 39.1895 28.409V23.3697C39.1895 21.9403 39.688 20.6025 41.2388 20.6025C42.9927 20.6025 43.3065 21.9403 43.3065 23.3697V28.409C43.3053 28.4189 43.3063 28.429 43.3095 28.4386C43.3127 28.4481 43.318 28.4568 43.325 28.464C43.325 28.4823 43.3435 28.5006 43.3804 28.5006H44.9681C44.9782 28.5018 44.9883 28.5008 44.9979 28.4977C45.0075 28.4945 45.0163 28.4892 45.0235 28.4823C45.0348 28.4736 45.044 28.4624 45.0504 28.4498C45.0568 28.4371 45.0602 28.4231 45.0605 28.409V23.3697C45.0605 21.9403 45.3743 20.6025 47.1097 20.6025C48.9374 20.6025 49.1775 21.9769 49.1775 23.3697V28.409C49.1767 28.4212 49.1786 28.4334 49.183 28.4449C49.1873 28.4564 49.1941 28.4668 49.2028 28.4754C49.2116 28.4841 49.222 28.4908 49.2336 28.4951C49.2451 28.4995 49.2575 28.5014 49.2698 28.5006H50.8391C50.8514 28.5014 50.8638 28.4995 50.8753 28.4951C50.8868 28.4908 50.8973 28.4841 50.906 28.4754C50.9148 28.4668 50.9215 28.4564 50.9259 28.4449C50.9303 28.4334 50.9322 28.4212 50.9314 28.409V23.3697C50.9314 20.6209 49.6944 19.0449 47.2944 19.0449ZM62.9129 19.0449C62.0267 19.0449 60.8267 19.3381 60.1251 20.1444C60.0328 20.2361 59.9959 20.2177 59.9036 20.1444C59.0359 19.3198 58.519 19.0449 57.2266 19.0449C56.3219 19.0449 55.362 19.4847 55.0296 20.1444C54.9927 20.2177 54.845 20.2544 54.8081 20.1444L54.6234 19.3198C54.605 19.2648 54.5865 19.2282 54.5312 19.2282H53.1465C53.1342 19.2274 53.1218 19.2293 53.1103 19.2336C53.0988 19.238 53.0883 19.2447 53.0795 19.2534C53.0708 19.262 53.064 19.2724 53.0597 19.2839C53.0553 19.2953 53.0534 19.3076 53.0542 19.3198V28.409C53.0534 28.4212 53.0553 28.4334 53.0597 28.4449C53.064 28.4564 53.0708 28.4668 53.0795 28.4754C53.0883 28.4841 53.0988 28.4908 53.1103 28.4951C53.1218 28.4995 53.1342 28.5014 53.1465 28.5006H54.7158C54.7281 28.5014 54.7404 28.4995 54.7519 28.4951C54.7635 28.4908 54.774 28.4841 54.7827 28.4754C54.7914 28.4668 54.7982 28.4564 54.8026 28.4449C54.8069 28.4334 54.8088 28.4212 54.8081 28.409V23.3697C54.8081 21.9403 55.3065 20.6025 56.8574 20.6025C58.6112 20.6025 58.9251 21.9403 58.9251 23.3697V28.409C58.9238 28.4189 58.9248 28.429 58.928 28.4386C58.9312 28.4481 58.9365 28.4568 58.9435 28.464C58.9435 28.4823 58.962 28.5006 58.9989 28.5006H60.5867C60.5967 28.5018 60.6069 28.5008 60.6165 28.4977C60.6261 28.4945 60.6348 28.4892 60.6421 28.4823C60.6534 28.4735 60.6625 28.4624 60.6689 28.4498C60.6753 28.4371 60.6787 28.4231 60.679 28.409V23.3697C60.679 21.9403 60.9928 20.6025 62.7283 20.6025C64.556 20.6025 64.796 21.9769 64.796 23.3697V28.409C64.7953 28.4212 64.7972 28.4334 64.8015 28.4449C64.8059 28.4564 64.8127 28.4668 64.8214 28.4754C64.8301 28.4841 64.8406 28.4908 64.8522 28.4952C64.8637 28.4995 64.876 28.5014 64.8884 28.5006H66.4576C66.4699 28.5013 66.4823 28.4995 66.4938 28.4951C66.5054 28.4908 66.5158 28.4841 66.5246 28.4754C66.5333 28.4667 66.5401 28.4563 66.5444 28.4449C66.5488 28.4334 66.5507 28.4212 66.55 28.409V23.3697C66.55 20.6209 65.3129 19.0449 62.9129 19.0449V19.0449ZM77.036 23.8644C77.036 26.7231 75.3375 28.6839 72.4574 28.6839C69.5589 28.6839 67.8788 26.7231 67.8788 23.8644C67.8788 20.9874 69.5589 19.0449 72.4574 19.0449C75.3375 19.0449 77.036 21.0057 77.036 23.8644V23.8644ZM75.2821 23.8644C75.2821 21.9586 74.2298 20.6025 72.4574 20.6025C70.7034 20.6025 69.6327 21.9586 69.6327 23.8644C69.6327 25.7702 70.7034 27.1262 72.4574 27.1262C74.2298 27.1262 75.2821 25.7702 75.2821 23.8644V23.8644ZM83.0729 19.0449C81.836 19.0449 81.0236 19.613 80.6544 20.1628C80.6174 20.2177 80.4698 20.2544 80.4513 20.1444L80.2666 19.3198C80.2482 19.2648 80.2297 19.2282 80.1744 19.2282H78.7897C78.7774 19.2274 78.765 19.2293 78.7535 19.2336C78.7419 19.238 78.7315 19.2447 78.7227 19.2534C78.714 19.262 78.7072 19.2724 78.7029 19.2839C78.6985 19.2953 78.6966 19.3076 78.6973 19.3198V28.409C78.6966 28.4212 78.6985 28.4334 78.7029 28.4449C78.7072 28.4563 78.714 28.4667 78.7227 28.4754C78.7315 28.4841 78.7419 28.4908 78.7535 28.4951C78.765 28.4995 78.7774 28.5013 78.7897 28.5006H80.3589C80.3713 28.5014 80.3836 28.4995 80.3951 28.4952C80.4067 28.4908 80.4172 28.4841 80.4259 28.4754C80.4346 28.4668 80.4414 28.4564 80.4458 28.4449C80.4501 28.4334 80.452 28.4212 80.4513 28.409V23.3697C80.4513 21.9403 81.3375 20.6025 82.8882 20.6025C84.716 20.6025 85.3437 21.9769 85.3437 23.3697V28.409C85.343 28.4212 85.3449 28.4334 85.3492 28.4449C85.3536 28.4563 85.3604 28.4667 85.3691 28.4754C85.3778 28.4841 85.3883 28.4908 85.3998 28.4951C85.4114 28.4995 85.4237 28.5013 85.436 28.5006H87.0053C87.0176 28.5013 87.03 28.4995 87.0415 28.4951C87.053 28.4908 87.0635 28.4841 87.0722 28.4754C87.081 28.4667 87.0877 28.4563 87.0921 28.4449C87.0965 28.4334 87.0984 28.4212 87.0976 28.409V23.3697C87.0977 20.9874 85.7499 19.0449 83.0729 19.0449ZM92.6728 22.9665C91.7496 22.8382 90.4204 22.8199 90.4204 21.7753C90.4204 21.2072 91.0297 20.6025 92.4143 20.6025C93.9097 20.6025 94.7221 21.2622 94.7221 22.2701C94.7214 22.2824 94.7232 22.2946 94.7276 22.3061C94.732 22.3175 94.7388 22.3279 94.7475 22.3366C94.7562 22.3452 94.7667 22.3519 94.7782 22.3563C94.7898 22.3606 94.8021 22.3625 94.8144 22.3617H96.4021C96.4575 22.3617 96.4759 22.3251 96.4759 22.2701C96.4759 20.1077 94.6851 19.0449 92.4143 19.0449C90.125 19.0449 88.6666 20.2727 88.6666 21.7753C88.6666 24.0476 90.9004 24.3225 92.6728 24.5241C93.4482 24.6157 94.9805 24.689 94.9805 25.7336C94.9805 26.9247 93.6144 27.1262 92.6728 27.1262C91.1959 27.1262 90.2542 26.3749 90.2542 25.4587C90.2514 25.4321 90.2383 25.4076 90.2176 25.3905C90.1969 25.3734 90.1703 25.365 90.1435 25.367H88.5927C88.5804 25.3663 88.5681 25.3682 88.5565 25.3725C88.545 25.3768 88.5345 25.3836 88.5258 25.3922C88.517 25.4009 88.5103 25.4113 88.5059 25.4227C88.5015 25.4342 88.4997 25.4464 88.5004 25.4587C88.5004 27.2179 89.8665 28.6839 92.6728 28.6839C94.9805 28.6839 96.7344 27.8226 96.7344 25.7336C96.7344 23.3879 94.519 23.223 92.6728 22.9665H92.6728ZM13.3818 0.289954H10.3909C10.3355 0.289954 10.2986 0.308247 10.2617 0.381542L6.97544 11.3766C6.96961 11.3964 6.95746 11.4138 6.94081 11.4262C6.92417 11.4386 6.90392 11.4453 6.88311 11.4453C6.86231 11.4453 6.84206 11.4386 6.82541 11.4262C6.80877 11.4138 6.79662 11.3964 6.79079 11.3766L3.50457 0.381542C3.46765 0.308247 3.43073 0.289954 3.37532 0.289954H0.384494C0.372179 0.289212 0.359846 0.291071 0.348309 0.295411C0.336772 0.29975 0.326294 0.30647 0.317568 0.315127C0.308841 0.323783 0.302065 0.33418 0.297687 0.345629C0.293308 0.357077 0.291427 0.369318 0.292169 0.381542V13.0991C0.291422 13.1113 0.293298 13.1236 0.297673 13.135C0.302049 13.1465 0.308824 13.1569 0.317551 13.1656C0.326278 13.1742 0.336758 13.181 0.348298 13.1853C0.359838 13.1896 0.372175 13.1915 0.384494 13.1908H1.95374C1.96606 13.1915 1.97839 13.1896 1.98993 13.1853C2.00147 13.181 2.01195 13.1742 2.02068 13.1656C2.02941 13.1569 2.03618 13.1465 2.04056 13.135C2.04493 13.1236 2.04681 13.1113 2.04606 13.0991V2.12245C2.046 2.09946 2.05455 2.07728 2.07007 2.06021C2.08558 2.04315 2.10694 2.03243 2.12998 2.03014C2.15302 2.02785 2.17609 2.03415 2.19471 2.04782C2.21332 2.0615 2.22614 2.08156 2.23067 2.1041L5.48002 13.0991C5.49351 13.1266 5.51451 13.1498 5.54062 13.166C5.56673 13.1822 5.59691 13.1908 5.6277 13.1908H8.13852C8.16932 13.1908 8.19949 13.1822 8.2256 13.166C8.25171 13.1498 8.27271 13.1266 8.28621 13.0991L11.5356 2.1041C11.554 2.01251 11.7202 1.99416 11.7202 2.12245V13.0991C11.7194 13.1113 11.7213 13.1236 11.7257 13.135C11.73 13.1465 11.7368 13.1569 11.7455 13.1656C11.7543 13.1742 11.7648 13.1809 11.7763 13.1853C11.7878 13.1896 11.8002 13.1915 11.8125 13.1908H13.3817C13.3941 13.1915 13.4064 13.1896 13.4179 13.1853C13.4295 13.1809 13.44 13.1742 13.4487 13.1656C13.4574 13.1569 13.4642 13.1465 13.4686 13.135C13.4729 13.1236 13.4748 13.1113 13.4741 13.0991V0.381542C13.4748 0.369319 13.4729 0.357079 13.4686 0.345631C13.4642 0.334183 13.4574 0.323787 13.4487 0.315131C13.4399 0.306475 13.4295 0.299754 13.4179 0.295414C13.4064 0.291074 13.3941 0.289213 13.3818 0.289954V0.289954ZM15.8088 13.1908H24.7854C24.7978 13.1915 24.8101 13.1896 24.8216 13.1853C24.8332 13.1809 24.8436 13.1742 24.8524 13.1656C24.8611 13.1569 24.8679 13.1465 24.8722 13.135C24.8766 13.1236 24.8785 13.1113 24.8778 13.0991V11.7247C24.8785 11.7125 24.8766 11.7003 24.8722 11.6888C24.8679 11.6774 24.8611 11.667 24.8523 11.6583C24.8436 11.6497 24.8331 11.643 24.8216 11.6386C24.8101 11.6343 24.7977 11.6324 24.7854 11.6331H17.5627C17.5504 11.6339 17.538 11.632 17.5265 11.6277C17.515 11.6233 17.5045 11.6166 17.4958 11.6079C17.487 11.5993 17.4803 11.5889 17.4759 11.5774C17.4715 11.566 17.4696 11.5537 17.4704 11.5415V0.381542C17.4711 0.369322 17.4692 0.357085 17.4649 0.345639C17.4605 0.334193 17.4537 0.323799 17.445 0.315143C17.4363 0.306487 17.4258 0.299766 17.4143 0.295424C17.4027 0.291082 17.3904 0.289217 17.3781 0.289954H15.8088C15.7965 0.289218 15.7841 0.291083 15.7726 0.295426C15.7611 0.299768 15.7506 0.306489 15.7419 0.315145C15.7332 0.323801 15.7264 0.334195 15.722 0.345641C15.7176 0.357086 15.7158 0.369323 15.7165 0.381542V13.0991C15.7158 13.1113 15.7176 13.1236 15.722 13.135C15.7264 13.1465 15.7331 13.1569 15.7419 13.1655C15.7506 13.1742 15.7611 13.1809 15.7726 13.1853C15.7841 13.1896 15.7965 13.1915 15.8088 13.1908V13.1908Z" fill="black"/>
<path d="M6.88186 25.8477C9.04507 25.8477 10.7987 24.1071 10.7987 21.9599C10.7987 19.8128 9.04507 18.0721 6.88186 18.0721C4.71865 18.0721 2.96502 19.8128 2.96502 21.9599C2.96502 24.1071 4.71865 25.8477 6.88186 25.8477Z" fill="black"/>
</svg>
